
<svg xmlns="http://www.w3.org/2000/svg" xmlns:xlink="http://www.w3.org/1999/xlink" version="1.1" width="1080" height="1080" viewBox="0 0 1080 1080" xml:space="preserve">
<g transform="matrix(1 0 0 1 540 540)" id="72a7868b-0f7d-4620-8749-24952724a84e"  >
</g>
<g transform="matrix(1 0 0 1 540 540)" id="cadf7651-ffa7-4793-85f1-c975f2d3226f"  >
<rect style="stroke: none; stroke-width: 1; stroke-dasharray: none; stroke-linecap: butt; stroke-dashoffset: 0; stroke-linejoin: miter; stroke-miterlimit: 4; fill: rgb(255,255,255); fill-rule: nonzero; opacity: 1; visibility: hidden;" vector-effect="non-scaling-stroke"  x="-540" y="-540" rx="0" ry="0" width="1080" height="1080" />
</g>
<g transform="matrix(1 0 0 1 540 540)"  >
<g style="" vector-effect="non-scaling-stroke"   >
		<g transform="matrix(2 0 0 2 7.32 7.32)"  >
<rect style="stroke: none; stroke-width: 1; stroke-dasharray: none; stroke-linecap: butt; stroke-dashoffset: 0; stroke-linejoin: miter; stroke-miterlimit: 4; fill: rgb(67,67,67); fill-rule: nonzero; opacity: 1;" vector-effect="non-scaling-stroke"  x="-50" y="-50" rx="0" ry="0" width="100" height="100" />
</g>
		<g transform="matrix(2 0 0 2 -44.68 -44.68)"  >
<path style="stroke: rgb(13,162,231); stroke-width: 4.5; stroke-dasharray: none; stroke-linecap: square; stroke-dashoffset: 0; stroke-linejoin: miter; stroke-miterlimit: 4; fill: rgb(67,67,67); fill-rule: nonzero; opacity: 1;" vector-effect="non-scaling-stroke"  transform=" translate(-24, -24)" d="M 5.323 7.811 C 1.7922345633863315 10.293075514400655 -2.9162345633863325 10.293075514400655 -6.447000000000001 7.811 M 54.447 7.811 C 50.91614079404715 10.29277906061176 46.20785920595286 10.29277906061176 42.67700000000001 7.811000000000002 M -6.447 40.19 C -2.916140794047147 37.708220939388234 1.7921407940471488 37.708220939388234 5.323000000000001 40.19 M 42.677 40.19 C 46.207952939210834 37.70851731450146 50.91604706078917 37.70851731450146 54.447 40.19 M 29.885 32.373 C 26.35414079404715 34.85477906061176 21.645859205952853 34.85477906061176 18.115000000000002 32.373 M 18.115000000000002 15.626999999999999 C 19.838514112491673 14.416155883891506 21.89366569206423 13.76660925041573 24 13.767 C 26.107 13.767 28.162 14.416 29.886 15.626999999999999" stroke-linecap="round" />
</g>
		<g transform="matrix(2 0 0 2 -44.68 -44.68)"  >
<path style="stroke: rgb(244,62,92); stroke-width: 4.5; stroke-dasharray: none; stroke-linecap: square; stroke-dashoffset: 0; stroke-linejoin: miter; stroke-miterlimit: 4; fill: rgb(67,67,67); fill-rule: nonzero; opacity: 1;" vector-effect="non-scaling-stroke"  transform=" translate(-24, -24)" d="M 15.627 5.323 C 13.145220939388237 1.7921407940471483 13.145220939388238 -2.916140794047145 15.627 -6.446999999999997 M 32.373 -6.446999999999999 C 34.85477906061176 -2.916140794047146 34.85477906061176 1.7921407940471497 32.373 5.323000000000002 M 15.627 54.447 C 13.144924485599347 50.91623456338633 13.144924485599349 46.20776543661368 15.627 42.67700000000001 M 32.373 42.67700000000001 C 34.85477906061176 46.20785920595286 34.85477906061176 50.91614079404715 32.373 54.447 M 40.19 29.885 C 37.708220939388234 26.35414079404715 37.708220939388234 21.645859205952856 40.19 18.115000000000002 M 7.811 18.115000000000002 C 10.29324767867076 21.646077663718764 10.293247678670758 26.354922336281245 7.810999999999996 29.886000000000006" stroke-linecap="round" />
</g>
</g>
</g>
</svg>